{
    "accessors" : [
        {
            "bufferView" : 0,
            "componentType" : 5123,
            "count" : 36498,
            "max" : [
                12065
            ],
            "min" : [
                0
            ],
            "type" : "SCALAR"
        },
        {
            "bufferView" : 1,
            "componentType" : 5126,
            "count" : 12066,
            "max" : [
                27.83570671081543,
                199.891845703125,
                244.01087951660156
            ],
            "min" : [
                -27.730226516723633,
                -435.23602294921875,
                -35.1214485168457
            ],
            "type" : "VEC3"
        },
        {
            "bufferView" : 2,
            "componentType" : 5126,
            "count" : 12066,
            "max" : [
                1.0,
                1.0,
                1.0
            ],
            "min" : [
                -1.0,
                -1.0,
                -1.0
            ],
            "type" : "VEC3"
        },
        {
            "bufferView" : 3,
            "componentType" : 5126,
            "count" : 12066,
            "max" : [
                0.9980469942092896,
                0.9980470000300556
            ],
            "min" : [
                0.0019529999699443579,
                0.02089601755142212
            ],
            "type" : "VEC2"
        }
    ],
    "asset" : {
        "generator" : "Khronos Blender glTF 2.0 exporter",
        "version" : "2.0"
    },
    "bufferViews" : [
        {
            "buffer" : 0,
            "byteLength" : 72996,
            "byteOffset" : 0,
            "target" : 34963
        },
        {
            "buffer" : 0,
            "byteLength" : 144792,
            "byteOffset" : 72996,
            "target" : 34962
        },
        {
            "buffer" : 0,
            "byteLength" : 144792,
            "byteOffset" : 217788,
            "target" : 34962
        },
        {
            "buffer" : 0,
            "byteLength" : 96528,
            "byteOffset" : 362580,
            "target" : 34962
        }
    ],
    "buffers" : [
        {
            "byteLength" : 459108,
            "uri" : "./assets/gltf/red-gun/Red-Gun-003.bin"
        }
    ],
    "images" : [
        {
            "name" : "Red-Gun_diffuse",
            "uri" : "./assets/gltf/red-gun/Red-Gun_diffuse.jpg"
        },
        {
            "name" : "Red-Gun_normal_map",
            "uri" : "./assets/gltf/red-gun/Red-Gun_normal_map.jpg"
        },
        {
            "name" : "Red-Gun_roughness",
            "uri" : "./assets/gltf/red-gun/Red-Gun_roughness.jpg"
        }
    ],
    "materials" : [
        {
            "name" : "default",
            "normalTexture" : {
                "index" : 1
            },
            "pbrMetallicRoughness" : {
                "baseColorTexture" : {
                    "index" : 0
                },
                "metallicFactor" : 2.0,
                "metallicRoughnessTexture" : {
                    "index" : 2
                }
            }
        }
    ],
    "meshes" : [
        {
            "name" : "Yellow_gun_normals_correct_obj_1",
            "primitives" : [
                {
                    "attributes" : {
                        "NORMAL" : 2,
                        "POSITION" : 1,
                        "TEXCOORD_0" : 3
                    },
                    "indices" : 0,
                    "material" : 0
                }
            ]
        }
    ],
    "nodes" : [
        {
            "name" : "Camera",
            "rotation" : [
                0.483536034822464,
                0.33687159419059753,
                -0.20870360732078552,
                0.7804827094078064
            ],
            "translation" : [
                7.481131553649902,
                5.34366512298584,
                6.5076398849487305
            ]
        },
        {
            "name" : "Lamp",
            "rotation" : [
                0.16907575726509094,
                0.7558802962303162,
                -0.27217137813568115,
                0.570947527885437
            ],
            "scale" : [
                1.0,
                1.0,
                0.9999999403953552
            ],
            "translation" : [
                4.076245307922363,
                5.903861999511719,
                -1.0054539442062378
            ]
        },
        {
            "mesh" : 0,
            "name" : "Yellow_gun_normals_correct_obj_1",
            "rotation" : [
                0.7071068286895752,
                0.0,
                -0.0,
                0.7071067094802856
            ],
            "scale" : [
                0.009776915423572063,
                0.009776915423572063,
                0.009776915423572063
            ],
            "translation" : [
                0.0,
                0.0,
                -1.7763568394002505e-15
            ]
        }
    ],
    "samplers" : [
        {}
    ],
    "scene" : 0,
    "scenes" : [
        {
            "name" : "Scene",
            "nodes" : [
                2,
                1,
                0
            ]
        }
    ],
    "textures" : [
        {
            "sampler" : 0,
            "source" : 0
        },
        {
            "sampler" : 0,
            "source" : 1
        },
        {
            "sampler" : 0,
            "source" : 2
        }
    ]
}
